<?xml version="1.0" encoding="utf-8"?>
<!-- Generator: Adobe Illustrator 16.0.4, SVG Export Plug-In . SVG Version: 6.00 Build 0)  -->
<!DOCTYPE svg PUBLIC "-//W3C//DTD SVG 1.1//EN" "http://www.w3.org/Graphics/SVG/1.1/DTD/svg11.dtd">
<svg version="1.1" id="Layer_1" xmlns="http://www.w3.org/2000/svg" xmlns:xlink="http://www.w3.org/1999/xlink" x="0px" y="0px"
	 width="19.223px" height="24px" viewBox="0 0 19.223 24" enable-background="new 0 0 19.223 24" xml:space="preserve">
<g>
	<path fill-rule="evenodd" clip-rule="evenodd" fill="#2473E4" d="M17.279,20.16h-1.92V0h1.92c1.057,0,1.92,0.864,1.92,1.92v16.32
		C19.199,19.296,18.336,20.16,17.279,20.16z"/>
	<path fill-rule="evenodd" clip-rule="evenodd" fill="#2473E4" d="M0,3.84h16.416V0H2.879C1.246,0,0,1.248,0,2.88V3.84z"/>
	<path fill-rule="evenodd" clip-rule="evenodd" fill="#ECF0F1" d="M15.359,21.12h-1.92V1.92h1.92c1.057,0,1.92,0.863,1.92,1.92V19.2
		C17.279,20.256,16.416,21.12,15.359,21.12z"/>
	<path fill-rule="evenodd" clip-rule="evenodd" fill="#67B7F9" d="M17.279,24h-14.4V4.8h14.4c1.057,0,1.92,0.864,1.92,1.921V22.08
		C19.199,23.136,18.336,24,17.279,24z"/>
	<path fill-rule="evenodd" clip-rule="evenodd" fill="#2473E4" d="M3.84,24H1.918C0.863,24,0,23.136,0,22.08V3.84
		c0-1.057,0.863-1.92,1.918-1.92H3.84V24z"/>
	<path fill-rule="evenodd" clip-rule="evenodd" fill="#ECF0F1" d="M14.879,4.8H3.359c-0.77,0-1.441-0.673-1.441-1.439
		c0-0.769,0.672-1.44,1.441-1.44h11.52c0.768,0,1.439,0.672,1.439,1.44C16.318,4.127,15.646,4.8,14.879,4.8z"/>
	<g>
		<path fill="#FFFFFF" d="M12.725,16.028H9.711l-0.662,1.568h-1.58l3.217-7.474h1.143l3.127,7.474h-1.568L12.725,16.028z
			 M12.299,14.84l-1.064-2.689L10.17,14.84H12.299z"/>
	</g>
</g>
</svg>
