<?xml version="1.0" encoding="utf-8"?>
<!-- Generator: Adobe Illustrator 16.0.4, SVG Export Plug-In . SVG Version: 6.00 Build 0)  -->
<!DOCTYPE svg PUBLIC "-//W3C//DTD SVG 1.1//EN" "http://www.w3.org/Graphics/SVG/1.1/DTD/svg11.dtd">
<svg version="1.1" id="Layer_1" xmlns="http://www.w3.org/2000/svg" xmlns:xlink="http://www.w3.org/1999/xlink" x="0px" y="0px"
	 width="24px" height="19.836px" viewBox="0 0 24 19.836" enable-background="new 0 0 24 19.836" xml:space="preserve">
<g>
	<path fill-rule="evenodd" clip-rule="evenodd" fill="#989898" d="M0.027,3.128h7.295V0H0.027V3.128z M8.365,3.128h7.298V0H8.365
		V3.128z M16.706,0v3.128H24V0H16.706z"/>
	<rect x="8.365" y="12.509" fill="#BBBBBB" width="7.298" height="3.125"/>
	<rect x="8.365" y="8.339" fill="#BBBBBB" width="7.298" height="3.128"/>
	<rect x="8.365" y="4.17" fill="#BBBBBB" width="7.298" height="3.126"/>
	<rect y="0.05" fill="#C9972B" width="7.298" height="3.126"/>
	<rect x="0.027" y="4.17" fill="#FDD204" width="7.295" height="3.126"/>
	<rect x="0.027" y="12.509" fill="#FDD204" width="7.295" height="3.125"/>
	<rect x="0.027" y="8.339" fill="#FDD204" width="7.295" height="3.128"/>
	<rect x="16.706" y="4.17" fill="#BBBBBB" width="7.294" height="3.126"/>
	<rect x="16.706" y="8.339" fill="#BBBBBB" width="7.294" height="3.128"/>
	<rect x="16.706" y="12.509" fill="#BBBBBB" width="7.294" height="3.125"/>
	<rect x="8.365" y="16.711" fill="#BBBBBB" width="7.298" height="3.127"/>
	<rect x="0.027" y="16.711" fill="#FDD204" width="7.295" height="3.127"/>
	<rect x="16.706" y="16.711" fill="#BBBBBB" width="7.294" height="3.127"/>
</g>
</svg>
