<?xml version="1.0" encoding="utf-8"?>
<!-- Generator: Adobe Illustrator 16.0.4, SVG Export Plug-In . SVG Version: 6.00 Build 0)  -->
<!DOCTYPE svg PUBLIC "-//W3C//DTD SVG 1.1//EN" "http://www.w3.org/Graphics/SVG/1.1/DTD/svg11.dtd">
<svg version="1.1" id="Layer_1" xmlns="http://www.w3.org/2000/svg" xmlns:xlink="http://www.w3.org/1999/xlink" x="0px" y="0px"
	 width="24px" height="24px" viewBox="0 0 24 24" enable-background="new 0 0 24 24" xml:space="preserve">
<g>
	<g>
		<path fill="#3399FF" d="M23.999,22c0,1.1-0.9,2-2,2H2c-1.1,0-2-0.9-2-2V2c0-1.1,0.9-2,2-2h20c1.1,0,2,0.9,2,2V22z"/>
	</g>
	<g>
		<path fill="#FFFFFF" d="M4.698,5.652c0.703,0,1.278,0.575,1.278,1.278c0,0.703-0.576,1.279-1.278,1.279
			c-0.702,0-1.278-0.576-1.278-1.279C3.42,6.227,3.996,5.652,4.698,5.652z"/>
		<path fill="#FFFFFF" d="M8.348,5.652c0.703,0,1.279,0.575,1.279,1.278c0,0.703-0.576,1.279-1.279,1.279
			c-0.702,0-1.277-0.576-1.277-1.279C7.07,6.227,7.646,5.652,8.348,5.652z"/>
		<path fill="#FFFFFF" d="M11.999,5.652c0.703,0,1.278,0.575,1.278,1.278c0,0.703-0.575,1.279-1.278,1.279
			c-0.702,0-1.277-0.576-1.277-1.279C10.722,6.227,11.297,5.652,11.999,5.652z"/>
		<path fill="#FFFFFF" d="M15.649,5.652c0.703,0,1.278,0.575,1.278,1.278c0,0.703-0.575,1.279-1.278,1.279
			c-0.702,0-1.277-0.576-1.277-1.279C14.372,6.227,14.947,5.652,15.649,5.652z"/>
		<path fill="#FFD300" d="M4.698,10.723c0.703,0,1.278,0.575,1.278,1.278c0,0.703-0.576,1.278-1.278,1.278
			c-0.702,0-1.278-0.575-1.278-1.278C3.42,11.298,3.996,10.723,4.698,10.723z"/>
		<path fill="#FFD300" d="M8.348,10.723c0.703,0,1.279,0.575,1.279,1.278c0,0.703-0.576,1.278-1.279,1.278
			c-0.702,0-1.277-0.575-1.277-1.278C7.07,11.298,7.646,10.723,8.348,10.723z"/>
		<path fill="#FFD300" d="M11.999,10.723c0.703,0,1.278,0.575,1.278,1.278c0,0.703-0.575,1.278-1.278,1.278
			c-0.702,0-1.277-0.575-1.277-1.278C10.722,11.298,11.297,10.723,11.999,10.723z"/>
		<path fill="#FFFFFF" d="M4.698,15.792c0.703,0,1.278,0.576,1.278,1.279S5.4,18.349,4.698,18.349c-0.702,0-1.278-0.574-1.278-1.277
			S3.996,15.792,4.698,15.792z"/>
		<path fill="#FFFFFF" d="M8.348,15.792c0.703,0,1.279,0.576,1.279,1.279s-0.576,1.277-1.279,1.277
			c-0.702,0-1.277-0.574-1.277-1.277S7.646,15.792,8.348,15.792z"/>
		<path fill="#FFFFFF" d="M11.999,15.792c0.703,0,1.278,0.576,1.278,1.279s-0.575,1.277-1.278,1.277
			c-0.702,0-1.277-0.574-1.277-1.277S11.297,15.792,11.999,15.792z"/>
		<path fill="#FFFFFF" d="M15.649,15.792c0.703,0,1.278,0.576,1.278,1.279s-0.575,1.277-1.278,1.277
			c-0.702,0-1.277-0.574-1.277-1.277S14.947,15.792,15.649,15.792z"/>
		<path fill="#FFFFFF" d="M19.301,15.792c0.704,0,1.278,0.576,1.278,1.279s-0.574,1.277-1.278,1.277
			c-0.702,0-1.277-0.574-1.277-1.277S18.599,15.792,19.301,15.792z"/>
	</g>
</g>
</svg>
