<?xml version="1.0" encoding="utf-8"?>
<!-- Generator: Adobe Illustrator 16.0.4, SVG Export Plug-In . SVG Version: 6.00 Build 0)  -->
<!DOCTYPE svg PUBLIC "-//W3C//DTD SVG 1.1//EN" "http://www.w3.org/Graphics/SVG/1.1/DTD/svg11.dtd">
<svg version="1.1" id="Layer_1" xmlns="http://www.w3.org/2000/svg" xmlns:xlink="http://www.w3.org/1999/xlink" x="0px" y="0px"
	 width="19.379px" height="24px" viewBox="0 0 19.379 24" enable-background="new 0 0 19.379 24" xml:space="preserve">
<g>
	<g>
		<path fill-rule="evenodd" clip-rule="evenodd" fill="#CCCCCC" d="M19.386,6.422v14.81c0,1.568-1.2,2.768-2.769,2.768H2.771
			C1.202,24,0,22.801,0,21.232V2.77C0,1.2,1.202,0,2.771,0h10.231l0.013,0.485l5.986,5.85L19.386,6.422z"/>
		<path fill-rule="evenodd" clip-rule="evenodd" fill="#2473E4" d="M3.694,18.488h7.384v-1.846H3.694V18.488z M3.694,12.951h9.23
			v-1.847h-9.23V12.951z M3.694,15.72h11.077v-1.846H3.694V15.72z M3.694,10.182h12.001V8.335H3.694V10.182z M3.694,5.566v1.845
			h9.23V5.566H3.694z"/>
	</g>
	<path fill-rule="evenodd" clip-rule="evenodd" fill="#FCBC06" d="M12.981,0v3.661c0,1.556,1.281,2.745,2.745,2.745h3.659
		C19.386,6.405,12.799,0,12.981,0z"/>
</g>
</svg>
