<?xml version="1.0" encoding="utf-8"?>
<!-- Generator: Adobe Illustrator 16.0.4, SVG Export Plug-In . SVG Version: 6.00 Build 0)  -->
<!DOCTYPE svg PUBLIC "-//W3C//DTD SVG 1.1//EN" "http://www.w3.org/Graphics/SVG/1.1/DTD/svg11.dtd">
<svg version="1.1" id="Layer_1" xmlns="http://www.w3.org/2000/svg" xmlns:xlink="http://www.w3.org/1999/xlink" x="0px" y="0px"
	 width="24px" height="24px" viewBox="0 0 24 24" enable-background="new 0 0 24 24" xml:space="preserve">
<g>
	<g>
		<path fill="#CCCCCC" d="M24,22c0,1.1-0.9,2-2,2H2c-1.1,0-2-0.9-2-2V2c0-1.1,0.9-2,2-2h20c1.1,0,2,0.9,2,2V22z"/>
	</g>
	<g>
		<g>
			<path fill-rule="evenodd" clip-rule="evenodd" fill="#2473E4" d="M3.182,6.027h2.73v-2.73h-2.73V6.027z"/>
		</g>
		<path fill-rule="evenodd" clip-rule="evenodd" fill="#2473E4" d="M3.182,13.309h2.73v-2.731h-2.73V13.309z"/>
		<path fill-rule="evenodd" clip-rule="evenodd" fill="#2473E4" d="M3.182,17.006h2.73v-2.73h-2.73V17.006z"/>
		<g>
			<path fill-rule="evenodd" clip-rule="evenodd" fill="#2473E4" d="M6.879,6.027h2.73v-2.73h-2.73V6.027z"/>
		</g>
		<path fill-rule="evenodd" clip-rule="evenodd" fill="#2473E4" d="M6.879,13.309h2.73v-2.731h-2.73V13.309z"/>
		<path fill-rule="evenodd" clip-rule="evenodd" fill="#2473E4" d="M6.879,17.006h2.73v-2.73h-2.73V17.006z"/>
		<path fill-rule="evenodd" clip-rule="evenodd" fill="#2473E4" d="M6.879,20.703h2.73v-2.73h-2.73V20.703z"/>
		<g>
			<path fill-rule="evenodd" clip-rule="evenodd" fill="#2473E4" d="M10.635,9.667h2.73v-2.73h-2.73V9.667z"/>
		</g>
		<path fill-rule="evenodd" clip-rule="evenodd" fill="#2473E4" d="M10.635,13.309h2.73v-2.731h-2.73V13.309z"/>
		<path fill-rule="evenodd" clip-rule="evenodd" fill="#2473E4" d="M10.635,20.703h2.73v-2.73h-2.73V20.703z"/>
		<g>
			<path fill-rule="evenodd" clip-rule="evenodd" fill="#2473E4" d="M14.389,9.667h2.73v-2.73h-2.73V9.667z"/>
		</g>
		<path fill-rule="evenodd" clip-rule="evenodd" fill="#2473E4" d="M14.389,13.309h2.73v-2.731h-2.73V13.309z"/>
		<path fill-rule="evenodd" clip-rule="evenodd" fill="#2473E4" d="M14.389,17.006h2.73v-2.73h-2.73V17.006z"/>
		<g>
			<path fill-rule="evenodd" clip-rule="evenodd" fill="#2473E4" d="M18.086,6.027h2.73v-2.73h-2.73V6.027z"/>
			<path fill-rule="evenodd" clip-rule="evenodd" fill="#2473E4" d="M18.086,9.667h2.73v-2.73h-2.73V9.667z"/>
		</g>
		<path fill-rule="evenodd" clip-rule="evenodd" fill="#2473E4" d="M18.086,13.309h2.73v-2.731h-2.73V13.309z"/>
		<path fill-rule="evenodd" clip-rule="evenodd" fill="#2473E4" d="M18.086,20.703h2.73v-2.73h-2.73V20.703z"/>
	</g>
</g>
</svg>
