<?xml version="1.0" encoding="utf-8"?>
<!-- Generator: Adobe Illustrator 16.0.4, SVG Export Plug-In . SVG Version: 6.00 Build 0)  -->
<!DOCTYPE svg PUBLIC "-//W3C//DTD SVG 1.1//EN" "http://www.w3.org/Graphics/SVG/1.1/DTD/svg11.dtd">
<svg version="1.1" id="Layer_1" xmlns="http://www.w3.org/2000/svg" xmlns:xlink="http://www.w3.org/1999/xlink" x="0px" y="0px"
	 width="24px" height="24px" viewBox="0 0 24 24" enable-background="new 0 0 24 24" xml:space="preserve">
<g>
	<path fill-rule="evenodd" clip-rule="evenodd" fill="#FFD300" d="M0,5.221h7.304V2.089H0V5.221z M8.348,5.221h7.306V2.089H8.348
		V5.221z M16.697,2.089v3.131H24V2.089H16.697z"/>
	<rect x="8.348" y="14.612" fill="#BBBBBB" width="7.306" height="3.13"/>
	<rect x="8.348" y="10.438" fill="#BBBBBB" width="7.306" height="3.132"/>
	<rect x="8.348" y="6.264" fill="#BBBBBB" width="7.306" height="3.13"/>
	<rect y="6.264" fill="#BBBBBB" width="7.304" height="3.13"/>
	<rect y="14.612" fill="#BBBBBB" width="7.304" height="3.13"/>
	<rect y="10.438" fill="#BBBBBB" width="7.304" height="3.132"/>
	<rect x="16.697" y="6.264" fill="#BBBBBB" width="7.303" height="3.13"/>
	<rect x="16.697" y="10.438" fill="#BBBBBB" width="7.303" height="3.132"/>
	<rect x="16.697" y="14.612" fill="#BBBBBB" width="7.303" height="3.13"/>
	<rect x="8.348" y="18.818" fill="#BBBBBB" width="7.306" height="3.132"/>
	<rect y="18.818" fill="#BBBBBB" width="7.304" height="3.132"/>
	<rect x="16.697" y="18.818" fill="#BBBBBB" width="7.303" height="3.132"/>
</g>
</svg>
