<?xml version="1.0" encoding="utf-8"?>
<!-- Generator: Adobe Illustrator 16.0.4, SVG Export Plug-In . SVG Version: 6.00 Build 0)  -->
<!DOCTYPE svg PUBLIC "-//W3C//DTD SVG 1.1//EN" "http://www.w3.org/Graphics/SVG/1.1/DTD/svg11.dtd">
<svg version="1.1" id="Layer_1" xmlns="http://www.w3.org/2000/svg" xmlns:xlink="http://www.w3.org/1999/xlink" x="0px" y="0px"
	 width="24px" height="24px" viewBox="0 0 24 24" enable-background="new 0 0 24 24" xml:space="preserve">
<g>
	<path fill="#EDD87E" d="M15.75,15.75V12h-7.5v3.75c-3.729,0-8.25,2.271-8.25,6C0,22.993,1.007,24,2.25,24h19.5
		c1.243,0,2.25-1.007,2.25-2.25C24,18.021,19.479,15.75,15.75,15.75z"/>
	<path fill="#EDD87E" d="M15,0.75H9c-1.658,0-3,1.347-3,3V7.5c0,4.138,2.688,7.5,6,7.5s6-3.362,6-7.5V3.75
		C18,2.097,16.658,0.75,15,0.75z"/>
	<path fill="#9D6E0F" d="M13.5,0h-3c-3,0-5.25,2.25-5.25,5.25c0,1.956,0.505,2.867,2.25,3.481V6c2.846,0,5.446-1.006,7.506-2.659
		C15.562,4.253,16.5,4.5,16.5,4.5v4.231c1.744-0.612,2.25-1.525,2.25-3.481C18.75,2.25,16.5,0,13.5,0z"/>
	<ellipse fill="#EDD87E" cx="18" cy="8.625" rx="0.75" ry="1.875"/>
	<ellipse fill="#EDD87E" cx="6" cy="8.625" rx="0.75" ry="1.875"/>
	<g>
		<defs>
			<rect id="SVGID_1_" x="8.244" y="13.347" width="7.515" height="2.408"/>
		</defs>
		<clipPath id="SVGID_2_">
			<use xlink:href="#SVGID_1_"  overflow="visible"/>
		</clipPath>
	</g>
	<path fill="#2473E4" d="M15.75,15.75c0,1.653-1.68,3-3.75,3s-3.75-1.347-3.75-3c-3.729,0-8.25,2.271-8.25,6
		C0,22.993,1.007,24,2.25,24h19.5c1.243,0,2.25-1.007,2.25-2.25C24,18.021,19.479,15.75,15.75,15.75z"/>
</g>
</svg>
