<?xml version="1.0" encoding="utf-8"?>
<!-- Generator: Adobe Illustrator 16.0.4, SVG Export Plug-In . SVG Version: 6.00 Build 0)  -->
<!DOCTYPE svg PUBLIC "-//W3C//DTD SVG 1.1//EN" "http://www.w3.org/Graphics/SVG/1.1/DTD/svg11.dtd">
<svg version="1.1" id="Layer_1" xmlns="http://www.w3.org/2000/svg" xmlns:xlink="http://www.w3.org/1999/xlink" x="0px" y="0px"
	 width="24px" height="24px" viewBox="0 0 24 24" enable-background="new 0 0 24 24" xml:space="preserve">
<g>
	<polygon fill-rule="evenodd" clip-rule="evenodd" fill="#9C9C9C" points="15.934,19.021 15.934,22.009 1.992,22.009 1.992,8.066 
		8.963,8.066 8.963,6.079 0,6.074 0,24 17.926,24 17.926,19.021 	"/>
	<polygon fill-rule="evenodd" clip-rule="evenodd" fill="#6D6E70" points="6.971,14.838 5.576,16.232 4.481,19.419 7.668,18.424 
		9.062,16.93 	"/>
	<polygon fill-rule="evenodd" clip-rule="evenodd" fill="#F39C12" points="8.467,10.658 6.376,12.75 5.542,16.396 7.668,18.424 
		11.153,17.627 13.245,15.535 	"/>
	<path fill-rule="evenodd" clip-rule="evenodd" fill="#FDD204" d="M23.402,2.688l-2.091-2.091c-0.797-0.797-1.992-0.797-2.788,0
		l-0.698,0.697l-0.497,0.497L6.373,12.747l4.88,4.88L22.208,6.672l0.497-0.498l0.697-0.697C24.199,4.681,24.199,3.386,23.402,2.688z
		"/>
</g>
</svg>
